<svg id="Layer_1" data-name="Layer 1" xmlns="http://www.w3.org/2000/svg" viewBox="0 0 100 100"><defs><style>.cls-1{fill:#b22222;}.cls-2{fill:#222;}.cls-3{fill:#ffa54f;}</style></defs><title>backpack-1Artboard 1</title><rect class="cls-1" x="58.3" y="76.8" width="5" height="3"/><path class="cls-1" d="M36,66H34V63.2H32.2V83.7h35V63.3H36Zm20.3,8.8h9v7h-9Z"/><path class="cls-1" d="M47.8,32.8a.94.94,0,0,0-1,1v3a1,1,0,0,0,2,0v-3A1,1,0,0,0,47.8,32.8Z"/><path class="cls-1" d="M51.8,32.8a.94.94,0,0,0-1,1v3a1,1,0,0,0,2,0v-3A1,1,0,0,0,51.8,32.8Z"/><path class="cls-1" d="M56.3,15.8h-13a18.05,18.05,0,0,0-18,18V76.3h5V54.8h39V76.3h5V33.8A18,18,0,0,0,56.3,15.8Zm1.2,20.8-6,6h0a2.42,2.42,0,0,1-3.5,0l-6-6a2.42,2.42,0,0,1,0-3.5l6-6h0a2.42,2.42,0,0,1,3.5,0l6,6A2.42,2.42,0,0,1,57.5,36.6Z"/><path class="cls-2" d="M57.2,13.8a7.53,7.53,0,0,0-8.4-6.5,7.43,7.43,0,0,0-6.5,6.5,20,20,0,0,0-19.1,20V85.2a7.49,7.49,0,0,0,7.5,7.5H68.6a7.49,7.49,0,0,0,7.5-7.5V33.7A19.76,19.76,0,0,0,57.2,13.8ZM49.8,9.3a5.56,5.56,0,0,1,5.4,4.5H44.3A5.49,5.49,0,0,1,49.8,9.3ZM67.3,83.8h-35V63.3H34V66h2V63.2H67.3Zm7-7.5h-5V54.8h-39V76.3h-5V33.8a18.05,18.05,0,0,1,18-18h13a18.05,18.05,0,0,1,18,18Z"/><path class="cls-3" d="M51.5,27.1a2.42,2.42,0,0,0-3.5,0h0l-6,6a2.42,2.42,0,0,0,0,3.5l6,6a2.42,2.42,0,0,0,3.5,0h0l6-6a2.42,2.42,0,0,0,0-3.5Zm-2.7,9.7a1,1,0,0,1-2,0v-3a1,1,0,0,1,2,0Zm4,0a1,1,0,0,1-2,0v-3a1,1,0,0,1,2,0Z"/><path class="cls-2" d="M65.3,74.8h-9v7h9Zm-2,5h-5v-3h5Z"/></svg>