<svg id="Layer_1" data-name="Layer 1" xmlns="http://www.w3.org/2000/svg" viewBox="0 0 100 100"><defs><style>.cls-1{fill:#ffe4b5;}.cls-2{fill:#222;}.cls-3{fill:#fff;}</style></defs><title>backpack-2Artboard 1</title><rect class="cls-1" x="34" y="65" width="2" height="25.63"/><path class="cls-1" d="M36.47,61.16A.78.78,0,0,0,36,61H34a.72.72,0,0,0-.49.16.78.78,0,0,0-.27.59.29.29,0,0,0,0,.13.78.78,0,0,0,.76.64h2a.78.78,0,0,0,.76-.64.3.3,0,0,0,0-.13A.78.78,0,0,0,36.47,61.16Z"/><path class="cls-1" d="M24,28.19c0,5.37,2.88,10,7.64,13.37a2.31,2.31,0,0,1,.36-.34V15.63H24.93Z"/><rect class="cls-1" x="47.5" y="71.75" width="5" height="3"/><rect class="cls-1" x="34" y="47" width="2" height="11.52"/><path class="cls-1" d="M36,43H34a.77.77,0,0,0-.78.74.79.79,0,0,0,.78.78h2a.8.8,0,0,0,.78-.75A.8.8,0,0,0,36,43Z"/><rect class="cls-1" x="64" y="15.63" width="2" height="24.89"/><rect class="cls-1" x="34" y="15.63" width="2" height="24.89"/><path class="cls-1" d="M30.8,43.42a22.09,22.09,0,0,1-5.3-5V76.13H29V54.59h3V46.27a3.23,3.23,0,0,1-1.2-2.51Z"/><path class="cls-1" d="M31.06,63.13H31v13h1l0-11.86A3,3,0,0,1,31.06,63.13Z"/><path class="cls-1" d="M61.1,63.13H38.91A3.07,3.07,0,0,1,38,64.27V83.59H62V64.27A3,3,0,0,1,61.1,63.13ZM54.5,76.75h-9v-7h9Z"/><path class="cls-1" d="M66.46,61.16A.76.76,0,0,0,66,61H64a.77.77,0,0,0-.48.16.76.76,0,0,0-.28.59.29.29,0,0,0,0,.13.78.78,0,0,0,.76.64h2a.78.78,0,0,0,.76-.64.3.3,0,0,0,0-.13A.76.76,0,0,0,66.46,61.16Z"/><path class="cls-1" d="M69.22,43.39v.35A3.24,3.24,0,0,1,68,46.27v8.32h3V76.13h3.54l0-37.74A21.35,21.35,0,0,1,69.22,43.39Z"/><rect class="cls-1" x="64" y="65" width="2" height="25.74"/><path class="cls-1" d="M68,64.27V76.13h1v-13h-.09A3.07,3.07,0,0,1,68,64.27Z"/><path class="cls-1" d="M38,46.89v7.7H62V46.88a37.9,37.9,0,0,1-12,1.86A38.22,38.22,0,0,1,38,46.89Z"/><path class="cls-1" d="M38,59.22a3.21,3.21,0,0,1,1.15,1.91h21.7A3.21,3.21,0,0,1,62,59.22v-.06H38Z"/><path class="cls-1" d="M68,15.63V41.22a2.31,2.31,0,0,1,.36.34c4.77-3.33,7.64-8,7.64-13.41l-.93-12.52Z"/><path class="cls-1" d="M38,41.22a3.22,3.22,0,0,1,1.22,2.52,3.31,3.31,0,0,1-.29,1.35A36.14,36.14,0,0,0,50,46.74a35.85,35.85,0,0,0,11.07-1.66,3.26,3.26,0,0,1-.29-1.34A3.22,3.22,0,0,1,62,41.22V15.63H38Z"/><rect class="cls-1" x="64" y="47" width="2" height="11.52"/><path class="cls-1" d="M64,44.52h2a.79.79,0,0,0,.73-.76A.76.76,0,0,0,66,43H64a.79.79,0,0,0-.78.74.78.78,0,0,0,.19.5A.76.76,0,0,0,64,44.52Z"/><path class="cls-2" d="M76.93,13.63H57.43a7.5,7.5,0,0,0-14.86,0H23.07L22,28.08v.07a16.5,16.5,0,0,0,1.5,6.91v50A7.55,7.55,0,0,0,31,92.63H69a7.56,7.56,0,0,0,7.55-7.56v-50L76.49,35A16.54,16.54,0,0,0,78,28ZM64,15.63h2V40.52H64ZM50,9.13a5.51,5.51,0,0,1,5.41,4.5H44.59A5.51,5.51,0,0,1,50,9.13Zm-16,6.5h2V40.52H34Zm-3,60.5v-13h.06a3,3,0,0,0,.9,1.14l0,11.86Zm1-21.54H29V76.13H25.5V38.42a22.09,22.09,0,0,0,5.3,5v.34A3.23,3.23,0,0,0,32,46.27Zm0-13.37a2.31,2.31,0,0,0-.36.34c-4.76-3.33-7.62-8-7.64-13.37l.93-12.56H32Zm4,49.41v.11H34V65h2Zm0-28.11H34a.78.78,0,0,1-.76-.64.29.29,0,0,1,0-.13.78.78,0,0,1,.27-.59A.72.72,0,0,1,34,61h2a.72.72,0,0,1,.74.75.3.3,0,0,1,0,.13A.78.78,0,0,1,36,62.52Zm-2-4V47h2V58.52Zm2.59-14.28a.76.76,0,0,1-.59.28H34a.79.79,0,0,1-.78-.78A.77.77,0,0,1,34,43h2a.8.8,0,0,1,.78.77A.75.75,0,0,1,36.59,44.24ZM62,83.59H38V64.27a3.07,3.07,0,0,0,.91-1.14H61.1a3,3,0,0,0,.9,1.14Zm0-24.37a3.21,3.21,0,0,0-1.15,1.91H39.15A3.21,3.21,0,0,0,38,59.22v-.06H62Zm0-4.63H38v-7.7a38.22,38.22,0,0,0,12,1.85,37.9,37.9,0,0,0,12-1.86Zm0-13.37a3.22,3.22,0,0,0-1.22,2.52,3.26,3.26,0,0,0,.29,1.34A35.85,35.85,0,0,1,50,46.74a36.14,36.14,0,0,1-11.07-1.65,3.31,3.31,0,0,0,.29-1.35A3.22,3.22,0,0,0,38,41.22V15.63H62ZM64,43h2a.76.76,0,0,1,.73.76.79.79,0,0,1-.73.76H64a.76.76,0,0,1-.59-.28.78.78,0,0,1-.19-.5A.79.79,0,0,1,64,43Zm2,4V58.52H64V47Zm0,43.74H64V65h2Zm0-28.22H64a.78.78,0,0,1-.76-.64.29.29,0,0,1,0-.13.76.76,0,0,1,.28-.59A.77.77,0,0,1,64,61h2a.74.74,0,0,1,.74.75.3.3,0,0,1,0,.13A.78.78,0,0,1,66,62.52Zm3,13.61H68V64.27a3.07,3.07,0,0,0,.91-1.14H69Zm2,0V54.59H68V46.27a3.24,3.24,0,0,0,1.22-2.53v-.35a21.35,21.35,0,0,0,5.3-5l0,37.74ZM68.36,41.56a2.31,2.31,0,0,0-.36-.34V15.63h7.07L76,28.15C76,33.52,73.13,38.23,68.36,41.56Z"/><rect class="cls-3" x="34" y="90.63" width="2" height="0.11"/><path class="cls-2" d="M45.5,76.75h9v-7h-9Zm2-5h5v3h-5Z"/></svg>