<svg id="Layer_1" data-name="Layer 1" xmlns="http://www.w3.org/2000/svg" viewBox="0 0 100 100"><defs><style>.cls-1{fill:#8b668b;}.cls-2{fill:#222;}.cls-3{fill:#ffa54f;}</style></defs><title>backpack-4Artboard 1</title><path class="cls-1" d="M62.1,40.4c-.2-.1-.3-.3-.5-.5a3.19,3.19,0,0,1,.5-4.5V16.5a20.32,20.32,0,0,0-5.5-.8H43.5a17.13,17.13,0,0,0-5.5.9V35.5c.2.1.3.3.5.5a3.19,3.19,0,0,1-.5,4.5V54.6H62.1Zm-4.6-3.8-6,6a2.42,2.42,0,0,1-3.5,0l-6-6a2.42,2.42,0,0,1,0-3.5l6-6a2.42,2.42,0,0,1,3.5,0l6,6A2.42,2.42,0,0,1,57.5,36.6Z"/><path class="cls-1" d="M51.8,32.8a1.08,1.08,0,0,0-1,1v3a1,1,0,0,0,2,0v-3A1.08,1.08,0,0,0,51.8,32.8Z"/><path class="cls-1" d="M36,17.4a12.81,12.81,0,0,0-2,1.1V34.8h2Z"/><rect class="cls-1" x="34" y="41.2" width="2" height="13.5"/><path class="cls-1" d="M34,38.8h2.2a.71.71,0,0,0,.6-.6v-.4a.71.71,0,0,0-.6-.6H34a.8.8,0,0,0,0,1.6Z"/><rect class="cls-1" x="64" y="41.2" width="2" height="13.5"/><path class="cls-1" d="M63.9,38.7h2a.86.86,0,0,0,.8-.8c0-.1-.1-.2-.1-.3v-.1c0-.1-.1-.1-.2-.2h-.1a.37.37,0,0,0-.3-.1H64c-.4,0-.9.3-.9.7A.86.86,0,0,0,63.9,38.7Z"/><path class="cls-1" d="M66,18.5a12.81,12.81,0,0,0-2-1.1V34.8h2Z"/><polygon class="cls-1" points="21.7 79.2 23.5 79.7 23.5 70 21.7 70 21.7 79.2"/><path class="cls-1" d="M47.8,32.8a1.08,1.08,0,0,0-1,1v3a1,1,0,0,0,2,0v-3A1.08,1.08,0,0,0,47.8,32.8Z"/><polygon class="cls-1" points="76.4 79.7 78.2 79.2 78.2 70 76.4 70 76.4 79.7"/><path class="cls-1" d="M36.3,66h-2V63.2H32.5V83.8h35V63.2H36.3Zm20.2,8.8h9v7h-9Z"/><path class="cls-1" d="M68,19.9V35.5c.2.1.3.3.5.5a3.19,3.19,0,0,1-.5,4.5V54.8h1.5V76.2h5V33.7A18,18,0,0,0,68,19.9Z"/><polygon class="cls-1" points="76.4 68 78.2 68 78.2 62.5 76.4 61.6 76.4 68"/><polygon class="cls-1" points="21.7 68 23.5 68 23.5 61.7 21.7 62.6 21.7 68"/><rect class="cls-1" x="58.5" y="76.8" width="5" height="3"/><path class="cls-1" d="M25.5,33.8V76.2h5V54.7H32V40.5c-.2-.1-.3-.3-.5-.5a3.19,3.19,0,0,1,.5-4.5V19.9A12,12,0,0,0,30.8,21,18.09,18.09,0,0,0,25.5,33.8Z"/><path class="cls-2" d="M76.5,33.7A19.93,19.93,0,0,0,57.4,13.8a7.51,7.51,0,0,0-14.9,0,20,20,0,0,0-19.1,20V59.4l-3.8,2V80.8l3.8,1v3.4a7.49,7.49,0,0,0,7.5,7.5h38a7.49,7.49,0,0,0,7.5-7.5V81.8l3.8-1V61.4l-3.7-2ZM64,17.4a12.81,12.81,0,0,1,2,1.1V34.8H64Zm0,19.8h2a.37.37,0,0,1,.3.1h.1c.1.1.2.1.2.2v.1c0,.1.1.2.1.3a.86.86,0,0,1-.8.8h-2a.86.86,0,0,1-.8-.8C63.1,37.5,63.6,37.2,64,37.2Zm2,4V54.7H64V41.2ZM50,9.2a5.47,5.47,0,0,1,5.4,4.5H44.6A5.56,5.56,0,0,1,50,9.2ZM38,40.5a3.19,3.19,0,0,0,.5-4.5c-.2-.2-.3-.4-.5-.5V16.6a17.13,17.13,0,0,1,5.5-.9H56.6a20.32,20.32,0,0,1,5.5.8V35.4a3.19,3.19,0,0,0-.5,4.5c.2.2.3.4.5.5V54.6H38Zm-4-22a12.81,12.81,0,0,1,2-1.1V34.8H34Zm0,18.7h2.2a.71.71,0,0,1,.6.6v.4a.71.71,0,0,1-.6.6H34a.8.8,0,0,1,0-1.6Zm2,4V54.7H34V41.2ZM23.5,79.7l-1.8-.5V70h1.8Zm0-11.7H21.7V62.6l1.8-.9ZM32,35.5a3.19,3.19,0,0,0-.5,4.5c.2.2.3.4.5.5V54.7H30.5V76.2h-5V33.8A18.09,18.09,0,0,1,30.8,21,12,12,0,0,1,32,19.9ZM67.5,83.8h-35V63.2h1.8V66h2V63.2H67.5Zm7-7.6h-5V54.8H68V40.5a3.19,3.19,0,0,0,.5-4.5c-.2-.2-.3-.4-.5-.5V19.9a18,18,0,0,1,6.5,13.8Zm3.7,3-1.8.5V70h1.8Zm0-16.7V68H76.4V61.6Z"/><path class="cls-2" d="M65.5,74.8h-9v7h9Zm-2,5h-5v-3h5Z"/><path class="cls-3" d="M51.5,27.1a2.42,2.42,0,0,0-3.5,0l-6,6a2.42,2.42,0,0,0,0,3.5l6,6a2.42,2.42,0,0,0,3.5,0l6-6a2.42,2.42,0,0,0,0-3.5Zm-2.7,9.7a1,1,0,0,1-2,0v-3a1,1,0,0,1,2,0Zm4,0a1,1,0,0,1-2,0v-3a1,1,0,0,1,2,0Z"/></svg>