<svg id="Layer_1" data-name="Layer 1" xmlns="http://www.w3.org/2000/svg" viewBox="0 0 100 100"><defs><style>.cls-1{fill:#cfcfcf;}.cls-2{fill:#222;}.cls-3{fill:#ffa54f;}</style></defs><title>backpack-3Artboard 1</title><path d="M28,89.73a3.86,3.86,0,0,1-.94-.5A6.5,6.5,0,0,0,28,89.73Z"/><rect class="cls-1" x="64" y="38.85" width="2" height="13.53"/><rect class="cls-1" x="64" y="11.62" width="2" height="20.78"/><path class="cls-1" d="M48,30.42a1,1,0,0,0-1,1v3a1,1,0,0,0,2,0v-3A1,1,0,0,0,48,30.42Z"/><path class="cls-1" d="M64,36.4h2.18A.78.78,0,0,0,66,34.85H63.82A.78.78,0,0,0,64,36.4Z"/><path class="cls-1" d="M52,30.42a1,1,0,0,0-1,1v3a1,1,0,0,0,2,0v-3A1,1,0,0,0,52,30.42Z"/><path class="cls-1" d="M62,38.1a3.48,3.48,0,0,1-.47-.47A3.22,3.22,0,0,1,62,33.1V11.62H38V33.15a3.48,3.48,0,0,1,.47.47A3.22,3.22,0,0,1,38,38.15V52.38H62Zm-5-4.6-6,6a1.48,1.48,0,0,1-2.08,0l-6-6a1.48,1.48,0,0,1,0-2.08l6-6a1.48,1.48,0,0,1,2.08,0l6,6A1.48,1.48,0,0,1,57,33.5Z"/><polygon class="cls-1" points="21.75 47.86 23.5 48.32 23.5 38.62 21.75 38.62 21.75 47.86"/><polygon class="cls-1" points="78.25 38.62 76.5 38.62 76.5 48.32 78.25 47.86 78.25 38.62"/><polygon class="cls-1" points="21.75 76.86 23.5 77.32 23.5 67.62 21.75 67.62 21.75 76.86"/><polygon class="cls-1" points="21.75 65.62 23.5 65.62 23.5 59.29 21.75 60.22 21.75 65.62"/><rect class="cls-1" x="34" y="11.62" width="2" height="20.78"/><polygon class="cls-1" points="21.75 36.62 23.5 36.62 23.5 30.29 21.75 31.22 21.75 36.62"/><polygon class="cls-1" points="78.25 31.22 76.5 30.29 76.5 36.62 78.25 36.62 78.25 31.22"/><path class="cls-1" d="M69,11.62H68V33.15a3.48,3.48,0,0,1,.47.47A3.22,3.22,0,0,1,68,38.15V52.38h1.5v21.5h5l0-56.7A5.58,5.58,0,0,0,69,11.62Z"/><polygon class="cls-1" points="76.5 77.34 78.25 76.88 78.25 67.64 76.5 67.64 76.5 77.34"/><polygon class="cls-1" points="76.5 65.64 78.25 65.64 78.25 60.24 76.5 59.29 76.5 65.64"/><path class="cls-1" d="M36.25,63.62h-2V60.88H32.5v20.5h35V60.88H36.25ZM56.5,72.38h9v7h-9Z"/><path class="cls-1" d="M25.5,17.18v56.7h5V52.38H32V38.1a3.48,3.48,0,0,1-.47-.47A3.22,3.22,0,0,1,32,33.1V11.62H31A5.57,5.57,0,0,0,25.5,17.18Z"/><path class="cls-1" d="M34,36.4h2.18A.78.78,0,0,0,36,34.85H33.82A.78.78,0,0,0,34,36.4Z"/><rect class="cls-1" x="34" y="38.85" width="2" height="13.53"/><rect class="cls-1" x="58.5" y="74.38" width="5" height="3"/><path class="cls-2" d="M76.5,50.39l3.75-1V30L76.5,28V17.18A7.56,7.56,0,0,0,69,9.62H31a7.56,7.56,0,0,0-7.55,7.56V28L19.7,30V49.39l3.75,1V57L19.7,59V78.39l3.75,1v3.43a7.53,7.53,0,0,0,3.4,6.29l.17.12a6.5,6.5,0,0,0,.94.5,7.39,7.39,0,0,0,3,.65H69a7.56,7.56,0,0,0,7.55-7.56V79.39l3.75-1V59l-3.8-2Zm0-20.1,1.75.93v5.4H76.5Zm0,8.33h1.75v9.24l-1.75.46Zm-53,38.7-1.75-.46V67.62H23.5Zm0-11.7H21.75v-5.4l1.75-.93Zm0-17.3-1.75-.46V38.62H23.5Zm0-11.7H21.75v-5.4l1.75-.93Zm40.5-25h2V32.4H64Zm-.18,23.23H66a.78.78,0,0,1,.18,1.55H64a.78.78,0,0,1-.18-1.55Zm2.18,4V52.38H64V38.85Zm-28-.7a3.22,3.22,0,0,0,.47-4.53,3.48,3.48,0,0,0-.47-.47V11.62H62V33.1a3.22,3.22,0,0,0-.47,4.53,3.48,3.48,0,0,0,.47.47V52.38H38ZM34,11.62h2V32.4H34Zm-.18,23.23H36a.78.78,0,0,1,.18,1.55H34a.78.78,0,0,1-.18-1.55Zm2.18,4V52.38H34V38.85Zm-5.5,37v-.15l.15.15ZM32,33.1a3.22,3.22,0,0,0-.47,4.53,3.48,3.48,0,0,0,.47.47V52.38H30.5v21.5h-5V17.18A5.57,5.57,0,0,1,31,11.62h1ZM67.5,81.38h-35V60.88h1.75v2.74h2V60.88H67.5Zm7-7.5h-5V52.38H68V38.15a3.22,3.22,0,0,0,.47-4.53,3.48,3.48,0,0,0-.47-.47V11.62h1a5.58,5.58,0,0,1,5.55,5.56Zm3.75,3-1.75.46v-9.7h1.75Zm0-16.64v5.4H76.5V59.29Z"/><polygon class="cls-2" points="30.5 75.88 30.65 75.88 30.5 75.73 30.5 75.88"/><path class="cls-3" d="M51,25.42a1.48,1.48,0,0,0-2.08,0l-6,6a1.48,1.48,0,0,0,0,2.08l6,6a1.48,1.48,0,0,0,2.08,0l6-6a1.48,1.48,0,0,0,0-2.08Zm-2,9a1,1,0,0,1-2,0v-3a1,1,0,0,1,2,0Zm4,0a1,1,0,0,1-2,0v-3a1,1,0,0,1,2,0Z"/><path class="cls-2" d="M65.5,72.38h-9v7h9Zm-2,5h-5v-3h5Z"/></svg>